<mxfile host="Electron" modified="2023-05-21T20:13:09.761Z" agent="Mozilla/5.0 (Windows NT 10.0; Win64; x64) AppleWebKit/537.36 (KHTML, like Gecko) draw.io/21.2.8 Chrome/112.0.5615.165 Electron/24.2.0 Safari/537.36" etag="e9ujBdqVRIrRoqL6ELxq" version="21.2.8" type="device">
  <diagram name="Page-1" id="19qVZzSedat46zLy8-11">
    <mxGraphModel dx="1173" dy="709" grid="1" gridSize="10" guides="1" tooltips="1" connect="1" arrows="1" fold="1" page="1" pageScale="1" pageWidth="827" pageHeight="1169" math="0" shadow="0">
      <root>
        <mxCell id="0" />
        <mxCell id="1" parent="0" />
        <mxCell id="stn36z4AuQlsZOJp29rr-12" value="" style="ellipse;whiteSpace=wrap;html=1;fillColor=none;" vertex="1" parent="1">
          <mxGeometry x="120" y="129" width="630" height="601" as="geometry" />
        </mxCell>
        <mxCell id="stn36z4AuQlsZOJp29rr-9" value="" style="ellipse;whiteSpace=wrap;html=1;fillColor=none;" vertex="1" parent="1">
          <mxGeometry x="120" y="200" width="510" height="470" as="geometry" />
        </mxCell>
        <mxCell id="stn36z4AuQlsZOJp29rr-7" value="" style="ellipse;whiteSpace=wrap;html=1;fillColor=none;" vertex="1" parent="1">
          <mxGeometry x="120" y="240" width="410" height="390" as="geometry" />
        </mxCell>
        <mxCell id="stn36z4AuQlsZOJp29rr-5" value="" style="ellipse;whiteSpace=wrap;html=1;aspect=fixed;fillColor=none;" vertex="1" parent="1">
          <mxGeometry x="120" y="274" width="300" height="300" as="geometry" />
        </mxCell>
        <mxCell id="stn36z4AuQlsZOJp29rr-3" value="" style="ellipse;whiteSpace=wrap;html=1;aspect=fixed;fillColor=none;" vertex="1" parent="1">
          <mxGeometry x="120" y="316.5" width="209" height="209" as="geometry" />
        </mxCell>
        <mxCell id="stn36z4AuQlsZOJp29rr-1" value="" style="ellipse;whiteSpace=wrap;html=1;aspect=fixed;" vertex="1" parent="1">
          <mxGeometry x="120" y="376" width="90" height="90" as="geometry" />
        </mxCell>
        <mxCell id="stn36z4AuQlsZOJp29rr-2" value="Statistical Secondary Data Analysis and observations" style="text;html=1;strokeColor=none;fillColor=none;align=center;verticalAlign=middle;whiteSpace=wrap;rounded=0;" vertex="1" parent="1">
          <mxGeometry x="135" y="406" width="60" height="30" as="geometry" />
        </mxCell>
        <mxCell id="stn36z4AuQlsZOJp29rr-4" value="Cross - Sectional data collection" style="text;html=1;strokeColor=none;fillColor=none;align=center;verticalAlign=middle;whiteSpace=wrap;rounded=0;" vertex="1" parent="1">
          <mxGeometry x="210" y="356" width="76" height="50" as="geometry" />
        </mxCell>
        <mxCell id="stn36z4AuQlsZOJp29rr-6" value="Mono - method using a Quantitative approach" style="text;html=1;strokeColor=none;fillColor=none;align=center;verticalAlign=middle;whiteSpace=wrap;rounded=0;" vertex="1" parent="1">
          <mxGeometry x="321.8" y="338" width="80" height="84" as="geometry" />
        </mxCell>
        <mxCell id="stn36z4AuQlsZOJp29rr-8" value="Experimental approch" style="text;html=1;strokeColor=none;fillColor=none;align=center;verticalAlign=middle;whiteSpace=wrap;rounded=0;" vertex="1" parent="1">
          <mxGeometry x="437" y="392" width="70" height="45" as="geometry" />
        </mxCell>
        <mxCell id="stn36z4AuQlsZOJp29rr-11" value="Deductive approach&amp;nbsp;" style="text;html=1;strokeColor=none;fillColor=none;align=center;verticalAlign=middle;whiteSpace=wrap;rounded=0;" vertex="1" parent="1">
          <mxGeometry x="520" y="320" width="70" height="44" as="geometry" />
        </mxCell>
        <mxCell id="stn36z4AuQlsZOJp29rr-13" value="Positivism Approach" style="text;html=1;strokeColor=none;fillColor=none;align=center;verticalAlign=middle;whiteSpace=wrap;rounded=0;" vertex="1" parent="1">
          <mxGeometry x="620" y="316.5" width="70" height="44" as="geometry" />
        </mxCell>
        <mxCell id="stn36z4AuQlsZOJp29rr-14" value="Research Onion" style="text;html=1;strokeColor=none;fillColor=none;align=center;verticalAlign=middle;whiteSpace=wrap;rounded=0;" vertex="1" parent="1">
          <mxGeometry x="115" y="91" width="100" height="40" as="geometry" />
        </mxCell>
      </root>
    </mxGraphModel>
  </diagram>
</mxfile>
